<?xml version="1.0" encoding="UTF-8"?><svg xmlns="http://www.w3.org/2000/svg" xmlns:xlink="http://www.w3.org/1999/xlink" viewBox="0 0 48 48" version="1.1"><g id="surface1"><path d="M7 41V7c0-2.21 1.79-4 4-4h26c2.21 0 4 1.785 4 3.992v34.012C41 43.214 39.21 45 37 45H11c-2.21 0-4-1.79-4-4z" fill="#7E57C2"/><path d="M28.293 39.223V22.539s1.086-3.988-13.363 1.637c-.028.07-.028-15.426-.028-15.426l4.72-.027v9.925s13.218-5.207 13.218 3.95v16.62zM30.98 14.73h-5.003c1.8-2.203 3.433-5.98 3.433-5.98h5.176s-.887 2.46-3.606 5.98zM14.988 39.191v-9.496l4.75 4.75z" fill="#FFF"/></g><metadata><rdf:RDF xmlns:rdf="http://www.w3.org/1999/02/22-rdf-syntax-ns#" xmlns:rdfs="http://www.w3.org/2000/01/rdf-schema#" xmlns:dc="http://purl.org/dc/elements/1.1/"><rdf:Description about="https://iconscout.com/legal#licenses" dc:title="heroku" dc:description="heroku" dc:publisher="Iconscout" dc:date="2017-12-15" dc:format="image/svg+xml" dc:language="en"><dc:creator><rdf:Bag><rdf:li>Icons8</rdf:li></rdf:Bag></dc:creator></rdf:Description></rdf:RDF></metadata></svg>