<svg id="Capa_1" enable-background="new 0 0 497 497" height="512" viewBox="0 0 497 497" width="512" xmlns="http://www.w3.org/2000/svg"><g><g><g><g><g><path d="m363.228 3.458-144.794 131.39c-20.153 18.288-35.931 40.878-46.161 66.096-12.9 31.797-6.441 68.174 16.619 93.586 17.457 19.238 42.425 29.921 68.395 29.264 64.489-1.632 117.839-51.732 122.267-116.089 2.718-39.504-8.273-79.894-33.326-113.441l32.916-29.869c17.379-15.77 18.683-42.643 2.913-60.022-4.948-5.452-13.377-5.862-18.829-.915z" fill="#27b2ff"/><g><path d="m394.594 125.751-87.383 79.293c-3.997 3.627-10.178 3.327-13.805-.67l-4.014-4.424c-14.873-16.39-13.643-41.734 2.747-56.607l86.54-78.528c5.452-4.947 13.881-4.538 18.828.914 15.77 17.379 14.466 44.252-2.913 60.022z" fill="#008cff"/></g></g></g><path d="m387.178 99.01-31.476 28.562c-4.185 3.797-10.656 3.483-14.453-.701-3.797-4.185-3.483-10.656.702-14.453l31.476-28.562c4.185-3.797 10.656-3.483 14.453.701 3.797 4.185 3.483 10.656-.702 14.453z" fill="#5cceff"/></g><path d="m398.946 457.626-123.203-92.708-12.705 41.658 64.031 73.845c20.053 23.126 56.326 21.87 74.73-2.589 4.792-6.368 3.514-15.414-2.853-20.206z" fill="#008cff"/><path d="m427.199 397.209-138.971-28.009c-4.655 23.099 7.454 46.311 29.062 55.709l54.907 23.88c28.07 12.208 60.249-4.579 66.296-34.585 1.574-7.812-3.482-15.421-11.294-16.995z" fill="#27b2ff"/><path d="m120.355 183.416c-2.418-24.049-22.718-42.823-47.404-42.823-22.079 0-40.649 15.018-46.056 35.395-.994 3.745 1.783 7.428 5.657 7.428z" fill="#ffaf40"/><path d="m268.799 226.726c-18.792-18.792-32.723-157.369-130.375-157.369-44.567 0-80.979 34.867-80.979 79.204 0 14.542 3.924 28.164 10.766 39.873 6.311 10.8 6.582 23.975.931 35.135-23.168 45.754-7.593 112.413 41.403 161.409 57.704 57.704 139.908 69.055 183.608 25.355s32.349-125.904-25.354-183.607z" fill="#5cceff"/><path d="m162.702 332.76c-.185-4.547-1.707-8.925-4.317-12.653-4.42-6.313-8.047-13.23-10.733-20.619-3.626-9.959-5.386-20.287-5.386-30.521 0-22.928 8.832-45.421 25.399-62.395 3.85-3.95 7.872-7.709 12.05-11.273 6.489-5.534 8.744-14.544 5.935-22.597-14.195-40.702-42.015-75.01-78.004-97.471-29.403 11.72-50.202 39.817-50.202 73.329 0 14.541 3.929 28.163 10.764 39.874 6.314 10.801 6.589 23.979.937 35.131-23.165 45.762-7.592 112.417 41.398 161.416 1.411 1.401 2.831 2.783 4.269 4.137 16.529-11.39 31.133-25.369 43.24-41.345 3.229-4.262 4.874-9.517 4.657-14.859z" fill="#73e1ff"/><path d="m432.688 340.343-141.754 1.77c.294 23.561 17.004 43.717 40.103 48.372l58.695 11.83c30.006 6.048 57.947-17.117 57.565-47.724-.1-7.968-6.641-14.347-14.609-14.248z" fill="#5cceff"/><g><g><g><path d="m450.65 90.498-183.73 66.872c-25.573 9.308-48.722 24.254-67.729 43.729-23.968 24.557-31.745 60.675-20.008 92.92 8.885 24.411 27.959 43.743 52.248 52.956 60.316 22.878 128.652-3.325 157.089-61.228 17.456-35.543 22.556-77.089 12.051-117.619l41.768-15.202c22.052-8.026 33.423-32.41 25.396-54.462-2.519-6.917-10.168-10.483-17.085-7.966z" fill="#73e1ff"/><g><path d="m401.106 286.741-93.838 34.154c-5.072 1.846-10.68-.769-12.526-5.841l-2.043-5.613c-7.57-20.798 3.154-43.794 23.951-51.364l92.768-33.765c6.917-2.518 14.566 1.049 17.084 7.966 8.027 22.053-3.343 46.436-25.396 54.463z" fill="#27b2ff"/><path d="m433.437 215.57-110.88 40.357c-5.072 1.846-10.68-.769-12.526-5.841l-2.043-5.613c-7.57-20.798 3.154-43.794 23.951-51.364l109.811-39.968c6.917-2.518 14.566 1.049 17.084 7.966 8.025 22.053-3.345 46.437-25.397 54.463z" fill="#5cceff"/></g></g><path d="m199.189 201.101c-11.985 12.277-19.921 27.448-23.391 43.573-.29 1.346-.549 2.698-.776 4.056-1.55 9.265 7.402 16.789 16.23 13.576l.065-.024c4.154-1.512 7.143-5.152 7.875-9.511 2.155-12.835 8.115-25.004 17.483-34.602 12.275-12.582 26.763-23.079 42.532-30.919 5.563-2.766 8.153-9.271 6.029-15.109-2.488-6.836-10.372-10.025-16.889-6.793-18.241 9.044-34.874 21.111-49.158 35.753z" fill="#b6f0ff"/></g><circle cx="288.84" cy="162.455" fill="#b6f0ff" r="12.275"/><path d="m436.684 188.011-39.939 14.537c-5.31 1.933-11.182-.805-13.115-6.115-1.933-5.31.805-11.182 6.115-13.115l39.939-14.537c5.31-1.933 11.182.805 13.115 6.115 1.933 5.311-.805 11.182-6.115 13.115z" fill="#9edbff"/><path d="m402.779 259.989-39.939 14.537c-5.31 1.933-11.182-.805-13.115-6.115-1.933-5.31.805-11.182 6.115-13.115l39.939-14.537c5.31-1.933 11.182.805 13.115 6.115 1.933 5.31-.805 11.182-6.115 13.115z" fill="#5cceff"/></g><ellipse cx="96.661" cy="135.769" fill="#0465a0" rx="10.254" ry="12.351"/></g><path d="m78.141 234.29-.21-.095c-6.366-2.867-13.813.623-15.634 7.363-4.155 15.38-4.758 32.26-1.962 49.545 1.282 7.926 10.127 12.107 17.04 8.023.069-.041.137-.081.206-.122 4.068-2.405 6.184-7.062 5.438-11.729-2.257-14.118-1.741-27.648 1.476-39.651 1.446-5.396-1.259-11.039-6.354-13.334z" fill="#b6f0ff"/></g></svg>