<?xml version="1.0" standalone="no"?>
<!DOCTYPE svg PUBLIC "-//W3C//DTD SVG 20010904//EN"
 "http://www.w3.org/TR/2001/REC-SVG-20010904/DTD/svg10.dtd">
<svg version="1.0" xmlns="http://www.w3.org/2000/svg"
 width="122.000000pt" height="122.000000pt" viewBox="0 0 122.000000 122.000000"
 preserveAspectRatio="xMidYMid meet">
<metadata>
Created by potrace 1.16, written by Peter Selinger 2001-2019
</metadata>
<g transform="translate(0.000000,122.000000) scale(0.100000,-0.100000)"
fill="#000000" stroke="none">
<path d="M473 1195 c-34 -8 -98 -32 -142 -55 -210 -109 -335 -335 -318 -575
14 -192 113 -358 278 -465 165 -106 399 -119 583 -30 172 82 301 257 331 450
l5 35 -14 -35 c-67 -175 -192 -291 -357 -335 -79 -21 -204 -19 -281 5 -238 73
-393 316 -358 561 34 241 251 436 489 440 61 1 63 2 26 10 -59 12 -172 9 -242
-6z"/>
</g>
</svg>
